<?xml version="1.0" encoding="utf-8"?>
<svg xmlns="http://www.w3.org/2000/svg" xmlns:xlink="http://www.w3.org/1999/xlink" width="600" height="400" viewBox="0 0 2400 1600">
<defs>
  <clipPath id="clip580">
    <rect x="0" y="0" width="2400" height="1600"/>
  </clipPath>
</defs>
<path clip-path="url(#clip580)" d="M0 1600 L2400 1600 L2400 8.88178e-14 L0 8.88178e-14  Z" fill="#ffffff" fill-rule="evenodd" fill-opacity="1"/>
<defs>
  <clipPath id="clip581">
    <rect x="480" y="0" width="1681" height="1600"/>
  </clipPath>
</defs>
<path clip-path="url(#clip580)" d="M175.445 1423.18 L2352.76 1423.18 L2352.76 47.2441 L175.445 47.2441  Z" fill="#ffffff" fill-rule="evenodd" fill-opacity="1"/>
<defs>
  <clipPath id="clip582">
    <rect x="175" y="47" width="2178" height="1377"/>
  </clipPath>
</defs>
<polyline clip-path="url(#clip582)" style="stroke:#000000; stroke-linecap:round; stroke-linejoin:round; stroke-width:2; stroke-opacity:0.1; fill:none" points="226.745,1423.18 226.745,47.2441 "/>
<polyline clip-path="url(#clip582)" style="stroke:#000000; stroke-linecap:round; stroke-linejoin:round; stroke-width:2; stroke-opacity:0.1; fill:none" points="742.842,1423.18 742.842,47.2441 "/>
<polyline clip-path="url(#clip582)" style="stroke:#000000; stroke-linecap:round; stroke-linejoin:round; stroke-width:2; stroke-opacity:0.1; fill:none" points="1258.94,1423.18 1258.94,47.2441 "/>
<polyline clip-path="url(#clip582)" style="stroke:#000000; stroke-linecap:round; stroke-linejoin:round; stroke-width:2; stroke-opacity:0.1; fill:none" points="1775.04,1423.18 1775.04,47.2441 "/>
<polyline clip-path="url(#clip582)" style="stroke:#000000; stroke-linecap:round; stroke-linejoin:round; stroke-width:2; stroke-opacity:0.1; fill:none" points="2291.13,1423.18 2291.13,47.2441 "/>
<polyline clip-path="url(#clip582)" style="stroke:#000000; stroke-linecap:round; stroke-linejoin:round; stroke-width:2; stroke-opacity:0.1; fill:none" points="175.445,1348.38 2352.76,1348.38 "/>
<polyline clip-path="url(#clip582)" style="stroke:#000000; stroke-linecap:round; stroke-linejoin:round; stroke-width:2; stroke-opacity:0.1; fill:none" points="175.445,1143.41 2352.76,1143.41 "/>
<polyline clip-path="url(#clip582)" style="stroke:#000000; stroke-linecap:round; stroke-linejoin:round; stroke-width:2; stroke-opacity:0.1; fill:none" points="175.445,938.444 2352.76,938.444 "/>
<polyline clip-path="url(#clip582)" style="stroke:#000000; stroke-linecap:round; stroke-linejoin:round; stroke-width:2; stroke-opacity:0.1; fill:none" points="175.445,733.475 2352.76,733.475 "/>
<polyline clip-path="url(#clip582)" style="stroke:#000000; stroke-linecap:round; stroke-linejoin:round; stroke-width:2; stroke-opacity:0.1; fill:none" points="175.445,528.507 2352.76,528.507 "/>
<polyline clip-path="url(#clip582)" style="stroke:#000000; stroke-linecap:round; stroke-linejoin:round; stroke-width:2; stroke-opacity:0.1; fill:none" points="175.445,323.538 2352.76,323.538 "/>
<polyline clip-path="url(#clip582)" style="stroke:#000000; stroke-linecap:round; stroke-linejoin:round; stroke-width:2; stroke-opacity:0.1; fill:none" points="175.445,118.57 2352.76,118.57 "/>
<polyline clip-path="url(#clip580)" style="stroke:#000000; stroke-linecap:round; stroke-linejoin:round; stroke-width:4; stroke-opacity:1; fill:none" points="175.445,1423.18 2352.76,1423.18 "/>
<polyline clip-path="url(#clip580)" style="stroke:#000000; stroke-linecap:round; stroke-linejoin:round; stroke-width:4; stroke-opacity:1; fill:none" points="226.745,1423.18 226.745,1404.28 "/>
<polyline clip-path="url(#clip580)" style="stroke:#000000; stroke-linecap:round; stroke-linejoin:round; stroke-width:4; stroke-opacity:1; fill:none" points="742.842,1423.18 742.842,1404.28 "/>
<polyline clip-path="url(#clip580)" style="stroke:#000000; stroke-linecap:round; stroke-linejoin:round; stroke-width:4; stroke-opacity:1; fill:none" points="1258.94,1423.18 1258.94,1404.28 "/>
<polyline clip-path="url(#clip580)" style="stroke:#000000; stroke-linecap:round; stroke-linejoin:round; stroke-width:4; stroke-opacity:1; fill:none" points="1775.04,1423.18 1775.04,1404.28 "/>
<polyline clip-path="url(#clip580)" style="stroke:#000000; stroke-linecap:round; stroke-linejoin:round; stroke-width:4; stroke-opacity:1; fill:none" points="2291.13,1423.18 2291.13,1404.28 "/>
<path clip-path="url(#clip580)" d="M226.745 1454.1 Q223.134 1454.1 221.305 1457.66 Q219.5 1461.2 219.5 1468.33 Q219.5 1475.44 221.305 1479.01 Q223.134 1482.55 226.745 1482.55 Q230.38 1482.55 232.185 1479.01 Q234.014 1475.44 234.014 1468.33 Q234.014 1461.2 232.185 1457.66 Q230.38 1454.1 226.745 1454.1 M226.745 1450.39 Q232.555 1450.39 235.611 1455 Q238.69 1459.58 238.69 1468.33 Q238.69 1477.06 235.611 1481.67 Q232.555 1486.25 226.745 1486.25 Q220.935 1486.25 217.856 1481.67 Q214.801 1477.06 214.801 1468.33 Q214.801 1459.58 217.856 1455 Q220.935 1450.39 226.745 1450.39 Z" fill="#000000" fill-rule="nonzero" fill-opacity="1" /><path clip-path="url(#clip580)" d="M717.542 1451.02 L735.898 1451.02 L735.898 1454.96 L721.824 1454.96 L721.824 1463.43 Q722.843 1463.08 723.861 1462.92 Q724.88 1462.73 725.898 1462.73 Q731.685 1462.73 735.065 1465.9 Q738.444 1469.08 738.444 1474.49 Q738.444 1480.07 734.972 1483.17 Q731.5 1486.25 725.18 1486.25 Q723.005 1486.25 720.736 1485.88 Q718.491 1485.51 716.083 1484.77 L716.083 1480.07 Q718.167 1481.2 720.389 1481.76 Q722.611 1482.32 725.088 1482.32 Q729.092 1482.32 731.43 1480.21 Q733.768 1478.1 733.768 1474.49 Q733.768 1470.88 731.43 1468.77 Q729.092 1466.67 725.088 1466.67 Q723.213 1466.67 721.338 1467.08 Q719.486 1467.5 717.542 1468.38 L717.542 1451.02 Z" fill="#000000" fill-rule="nonzero" fill-opacity="1" /><path clip-path="url(#clip580)" d="M757.657 1454.1 Q754.046 1454.1 752.217 1457.66 Q750.412 1461.2 750.412 1468.33 Q750.412 1475.44 752.217 1479.01 Q754.046 1482.55 757.657 1482.55 Q761.291 1482.55 763.097 1479.01 Q764.926 1475.44 764.926 1468.33 Q764.926 1461.2 763.097 1457.66 Q761.291 1454.1 757.657 1454.1 M757.657 1450.39 Q763.467 1450.39 766.523 1455 Q769.602 1459.58 769.602 1468.33 Q769.602 1477.06 766.523 1481.67 Q763.467 1486.25 757.657 1486.25 Q751.847 1486.25 748.768 1481.67 Q745.713 1477.06 745.713 1468.33 Q745.713 1459.58 748.768 1455 Q751.847 1450.39 757.657 1450.39 Z" fill="#000000" fill-rule="nonzero" fill-opacity="1" /><path clip-path="url(#clip580)" d="M1218.55 1481.64 L1226.19 1481.64 L1226.19 1455.28 L1217.87 1456.95 L1217.87 1452.69 L1226.14 1451.02 L1230.81 1451.02 L1230.81 1481.64 L1238.45 1481.64 L1238.45 1485.58 L1218.55 1485.58 L1218.55 1481.64 Z" fill="#000000" fill-rule="nonzero" fill-opacity="1" /><path clip-path="url(#clip580)" d="M1257.9 1454.1 Q1254.29 1454.1 1252.46 1457.66 Q1250.65 1461.2 1250.65 1468.33 Q1250.65 1475.44 1252.46 1479.01 Q1254.29 1482.55 1257.9 1482.55 Q1261.53 1482.55 1263.34 1479.01 Q1265.17 1475.44 1265.17 1468.33 Q1265.17 1461.2 1263.34 1457.66 Q1261.53 1454.1 1257.9 1454.1 M1257.9 1450.39 Q1263.71 1450.39 1266.76 1455 Q1269.84 1459.58 1269.84 1468.33 Q1269.84 1477.06 1266.76 1481.67 Q1263.71 1486.25 1257.9 1486.25 Q1252.09 1486.25 1249.01 1481.67 Q1245.95 1477.06 1245.95 1468.33 Q1245.95 1459.58 1249.01 1455 Q1252.09 1450.39 1257.9 1450.39 Z" fill="#000000" fill-rule="nonzero" fill-opacity="1" /><path clip-path="url(#clip580)" d="M1288.06 1454.1 Q1284.45 1454.1 1282.62 1457.66 Q1280.81 1461.2 1280.81 1468.33 Q1280.81 1475.44 1282.62 1479.01 Q1284.45 1482.55 1288.06 1482.55 Q1291.69 1482.55 1293.5 1479.01 Q1295.33 1475.44 1295.33 1468.33 Q1295.33 1461.2 1293.5 1457.66 Q1291.69 1454.1 1288.06 1454.1 M1288.06 1450.39 Q1293.87 1450.39 1296.93 1455 Q1300 1459.58 1300 1468.33 Q1300 1477.06 1296.93 1481.67 Q1293.87 1486.25 1288.06 1486.25 Q1282.25 1486.25 1279.17 1481.67 Q1276.12 1477.06 1276.12 1468.33 Q1276.12 1459.58 1279.17 1455 Q1282.25 1450.39 1288.06 1450.39 Z" fill="#000000" fill-rule="nonzero" fill-opacity="1" /><path clip-path="url(#clip580)" d="M1734.64 1481.64 L1742.28 1481.64 L1742.28 1455.28 L1733.97 1456.95 L1733.97 1452.69 L1742.24 1451.02 L1746.91 1451.02 L1746.91 1481.64 L1754.55 1481.64 L1754.55 1485.58 L1734.64 1485.58 L1734.64 1481.64 Z" fill="#000000" fill-rule="nonzero" fill-opacity="1" /><path clip-path="url(#clip580)" d="M1764.04 1451.02 L1782.4 1451.02 L1782.4 1454.96 L1768.32 1454.96 L1768.32 1463.43 Q1769.34 1463.08 1770.36 1462.92 Q1771.38 1462.73 1772.4 1462.73 Q1778.18 1462.73 1781.56 1465.9 Q1784.94 1469.08 1784.94 1474.49 Q1784.94 1480.07 1781.47 1483.17 Q1778 1486.25 1771.68 1486.25 Q1769.5 1486.25 1767.24 1485.88 Q1764.99 1485.51 1762.58 1484.77 L1762.58 1480.07 Q1764.67 1481.2 1766.89 1481.76 Q1769.11 1482.32 1771.59 1482.32 Q1775.59 1482.32 1777.93 1480.21 Q1780.27 1478.1 1780.27 1474.49 Q1780.27 1470.88 1777.93 1468.77 Q1775.59 1466.67 1771.59 1466.67 Q1769.71 1466.67 1767.84 1467.08 Q1765.99 1467.5 1764.04 1468.38 L1764.04 1451.02 Z" fill="#000000" fill-rule="nonzero" fill-opacity="1" /><path clip-path="url(#clip580)" d="M1804.16 1454.1 Q1800.55 1454.1 1798.72 1457.66 Q1796.91 1461.2 1796.91 1468.33 Q1796.91 1475.44 1798.72 1479.01 Q1800.55 1482.55 1804.16 1482.55 Q1807.79 1482.55 1809.6 1479.01 Q1811.43 1475.44 1811.43 1468.33 Q1811.43 1461.2 1809.6 1457.66 Q1807.79 1454.1 1804.16 1454.1 M1804.16 1450.39 Q1809.97 1450.39 1813.02 1455 Q1816.1 1459.58 1816.1 1468.33 Q1816.1 1477.06 1813.02 1481.67 Q1809.97 1486.25 1804.16 1486.25 Q1798.35 1486.25 1795.27 1481.67 Q1792.21 1477.06 1792.21 1468.33 Q1792.21 1459.58 1795.27 1455 Q1798.35 1450.39 1804.16 1450.39 Z" fill="#000000" fill-rule="nonzero" fill-opacity="1" /><path clip-path="url(#clip580)" d="M2254.83 1481.64 L2271.15 1481.64 L2271.15 1485.58 L2249.2 1485.58 L2249.2 1481.64 Q2251.86 1478.89 2256.45 1474.26 Q2261.05 1469.61 2262.23 1468.27 Q2264.48 1465.74 2265.36 1464.01 Q2266.26 1462.25 2266.26 1460.56 Q2266.26 1457.8 2264.32 1456.07 Q2262.4 1454.33 2259.29 1454.33 Q2257.09 1454.33 2254.64 1455.09 Q2252.21 1455.86 2249.43 1457.41 L2249.43 1452.69 Q2252.26 1451.55 2254.71 1450.97 Q2257.16 1450.39 2259.2 1450.39 Q2264.57 1450.39 2267.77 1453.08 Q2270.96 1455.77 2270.96 1460.26 Q2270.96 1462.39 2270.15 1464.31 Q2269.36 1466.2 2267.26 1468.8 Q2266.68 1469.47 2263.58 1472.69 Q2260.47 1475.88 2254.83 1481.64 Z" fill="#000000" fill-rule="nonzero" fill-opacity="1" /><path clip-path="url(#clip580)" d="M2290.96 1454.1 Q2287.35 1454.1 2285.52 1457.66 Q2283.71 1461.2 2283.71 1468.33 Q2283.71 1475.44 2285.52 1479.01 Q2287.35 1482.55 2290.96 1482.55 Q2294.59 1482.55 2296.4 1479.01 Q2298.23 1475.44 2298.23 1468.33 Q2298.23 1461.2 2296.4 1457.66 Q2294.59 1454.1 2290.96 1454.1 M2290.96 1450.39 Q2296.77 1450.39 2299.83 1455 Q2302.9 1459.58 2302.9 1468.33 Q2302.9 1477.06 2299.83 1481.67 Q2296.77 1486.25 2290.96 1486.25 Q2285.15 1486.25 2282.07 1481.67 Q2279.02 1477.06 2279.02 1468.33 Q2279.02 1459.58 2282.07 1455 Q2285.15 1450.39 2290.96 1450.39 Z" fill="#000000" fill-rule="nonzero" fill-opacity="1" /><path clip-path="url(#clip580)" d="M2321.12 1454.1 Q2317.51 1454.1 2315.68 1457.66 Q2313.88 1461.2 2313.88 1468.33 Q2313.88 1475.44 2315.68 1479.01 Q2317.51 1482.55 2321.12 1482.55 Q2324.76 1482.55 2326.56 1479.01 Q2328.39 1475.44 2328.39 1468.33 Q2328.39 1461.2 2326.56 1457.66 Q2324.76 1454.1 2321.12 1454.1 M2321.12 1450.39 Q2326.93 1450.39 2329.99 1455 Q2333.07 1459.58 2333.07 1468.33 Q2333.07 1477.06 2329.99 1481.67 Q2326.93 1486.25 2321.12 1486.25 Q2315.31 1486.25 2312.23 1481.67 Q2309.18 1477.06 2309.18 1468.33 Q2309.18 1459.58 2312.23 1455 Q2315.31 1450.39 2321.12 1450.39 Z" fill="#000000" fill-rule="nonzero" fill-opacity="1" /><path clip-path="url(#clip580)" d="M1184.29 1548.76 L1184.29 1551.62 L1157.36 1551.62 Q1157.75 1557.67 1160.99 1560.85 Q1164.27 1564 1170.09 1564 Q1173.47 1564 1176.62 1563.17 Q1179.8 1562.35 1182.92 1560.69 L1182.92 1566.23 Q1179.77 1567.57 1176.46 1568.27 Q1173.15 1568.97 1169.74 1568.97 Q1161.21 1568.97 1156.22 1564 Q1151.25 1559.04 1151.25 1550.57 Q1151.25 1541.82 1155.96 1536.69 Q1160.71 1531.54 1168.73 1531.54 Q1175.92 1531.54 1180.09 1536.18 Q1184.29 1540.8 1184.29 1548.76 M1178.43 1547.04 Q1178.37 1542.23 1175.73 1539.37 Q1173.12 1536.5 1168.79 1536.5 Q1163.89 1536.5 1160.93 1539.27 Q1158 1542.04 1157.55 1547.07 L1178.43 1547.04 Z" fill="#000000" fill-rule="nonzero" fill-opacity="1" /><path clip-path="url(#clip580)" d="M1199.57 1562.7 L1199.57 1581.6 L1193.68 1581.6 L1193.68 1532.4 L1199.57 1532.4 L1199.57 1537.81 Q1201.41 1534.62 1204.22 1533.1 Q1207.05 1531.54 1210.96 1531.54 Q1217.46 1531.54 1221.5 1536.69 Q1225.57 1541.85 1225.57 1550.25 Q1225.57 1558.65 1221.5 1563.81 Q1217.46 1568.97 1210.96 1568.97 Q1207.05 1568.97 1204.22 1567.44 Q1201.41 1565.88 1199.57 1562.7 M1219.49 1550.25 Q1219.49 1543.79 1216.82 1540.13 Q1214.18 1536.44 1209.53 1536.44 Q1204.88 1536.44 1202.21 1540.13 Q1199.57 1543.79 1199.57 1550.25 Q1199.57 1556.71 1202.21 1560.4 Q1204.88 1564.07 1209.53 1564.07 Q1214.18 1564.07 1216.82 1560.4 Q1219.49 1556.71 1219.49 1550.25 Z" fill="#000000" fill-rule="nonzero" fill-opacity="1" /><path clip-path="url(#clip580)" d="M1249.09 1536.5 Q1244.38 1536.5 1241.65 1540.19 Q1238.91 1543.85 1238.91 1550.25 Q1238.91 1556.65 1241.61 1560.34 Q1244.35 1564 1249.09 1564 Q1253.77 1564 1256.51 1560.31 Q1259.25 1556.62 1259.25 1550.25 Q1259.25 1543.92 1256.51 1540.23 Q1253.77 1536.5 1249.09 1536.5 M1249.09 1531.54 Q1256.73 1531.54 1261.09 1536.5 Q1265.45 1541.47 1265.45 1550.25 Q1265.45 1559 1261.09 1564 Q1256.73 1568.97 1249.09 1568.97 Q1241.42 1568.97 1237.06 1564 Q1232.73 1559 1232.73 1550.25 Q1232.73 1541.47 1237.06 1536.5 Q1241.42 1531.54 1249.09 1531.54 Z" fill="#000000" fill-rule="nonzero" fill-opacity="1" /><path clip-path="url(#clip580)" d="M1300.81 1533.76 L1300.81 1539.24 Q1298.33 1537.87 1295.82 1537.2 Q1293.34 1536.5 1290.79 1536.5 Q1285.09 1536.5 1281.94 1540.13 Q1278.79 1543.73 1278.79 1550.25 Q1278.79 1556.78 1281.94 1560.4 Q1285.09 1564 1290.79 1564 Q1293.34 1564 1295.82 1563.33 Q1298.33 1562.63 1300.81 1561.26 L1300.81 1566.68 Q1298.36 1567.82 1295.72 1568.39 Q1293.11 1568.97 1290.15 1568.97 Q1282.1 1568.97 1277.36 1563.91 Q1272.61 1558.85 1272.61 1550.25 Q1272.61 1541.53 1277.39 1536.53 Q1282.2 1531.54 1290.53 1531.54 Q1293.24 1531.54 1295.82 1532.11 Q1298.4 1532.65 1300.81 1533.76 Z" fill="#000000" fill-rule="nonzero" fill-opacity="1" /><path clip-path="url(#clip580)" d="M1340.63 1546.53 L1340.63 1568.04 L1334.78 1568.04 L1334.78 1546.72 Q1334.78 1541.66 1332.8 1539.14 Q1330.83 1536.63 1326.88 1536.63 Q1322.14 1536.63 1319.4 1539.65 Q1316.67 1542.68 1316.67 1547.9 L1316.67 1568.04 L1310.78 1568.04 L1310.78 1518.52 L1316.67 1518.52 L1316.67 1537.93 Q1318.77 1534.72 1321.6 1533.13 Q1324.46 1531.54 1328.19 1531.54 Q1334.33 1531.54 1337.48 1535.36 Q1340.63 1539.14 1340.63 1546.53 Z" fill="#000000" fill-rule="nonzero" fill-opacity="1" /><path clip-path="url(#clip580)" d="M1375.04 1533.45 L1375.04 1538.98 Q1372.56 1537.71 1369.88 1537.07 Q1367.21 1536.44 1364.34 1536.44 Q1359.98 1536.44 1357.79 1537.77 Q1355.62 1539.11 1355.62 1541.79 Q1355.62 1543.82 1357.18 1545 Q1358.74 1546.15 1363.45 1547.2 L1365.46 1547.64 Q1371.7 1548.98 1374.31 1551.43 Q1376.95 1553.85 1376.95 1558.21 Q1376.95 1563.17 1373 1566.07 Q1369.09 1568.97 1362.21 1568.97 Q1359.35 1568.97 1356.23 1568.39 Q1353.14 1567.85 1349.7 1566.74 L1349.7 1560.69 Q1352.95 1562.38 1356.1 1563.24 Q1359.25 1564.07 1362.34 1564.07 Q1366.48 1564.07 1368.71 1562.66 Q1370.93 1561.23 1370.93 1558.65 Q1370.93 1556.27 1369.31 1554.99 Q1367.72 1553.72 1362.28 1552.54 L1360.24 1552.07 Q1354.8 1550.92 1352.38 1548.56 Q1349.96 1546.18 1349.96 1542.04 Q1349.96 1537.01 1353.52 1534.27 Q1357.09 1531.54 1363.64 1531.54 Q1366.89 1531.54 1369.76 1532.01 Q1372.62 1532.49 1375.04 1533.45 Z" fill="#000000" fill-rule="nonzero" fill-opacity="1" /><polyline clip-path="url(#clip580)" style="stroke:#000000; stroke-linecap:round; stroke-linejoin:round; stroke-width:4; stroke-opacity:1; fill:none" points="175.445,1423.18 175.445,47.2441 "/>
<polyline clip-path="url(#clip580)" style="stroke:#000000; stroke-linecap:round; stroke-linejoin:round; stroke-width:4; stroke-opacity:1; fill:none" points="175.445,1348.38 194.343,1348.38 "/>
<polyline clip-path="url(#clip580)" style="stroke:#000000; stroke-linecap:round; stroke-linejoin:round; stroke-width:4; stroke-opacity:1; fill:none" points="175.445,1143.41 194.343,1143.41 "/>
<polyline clip-path="url(#clip580)" style="stroke:#000000; stroke-linecap:round; stroke-linejoin:round; stroke-width:4; stroke-opacity:1; fill:none" points="175.445,938.444 194.343,938.444 "/>
<polyline clip-path="url(#clip580)" style="stroke:#000000; stroke-linecap:round; stroke-linejoin:round; stroke-width:4; stroke-opacity:1; fill:none" points="175.445,733.475 194.343,733.475 "/>
<polyline clip-path="url(#clip580)" style="stroke:#000000; stroke-linecap:round; stroke-linejoin:round; stroke-width:4; stroke-opacity:1; fill:none" points="175.445,528.507 194.343,528.507 "/>
<polyline clip-path="url(#clip580)" style="stroke:#000000; stroke-linecap:round; stroke-linejoin:round; stroke-width:4; stroke-opacity:1; fill:none" points="175.445,323.538 194.343,323.538 "/>
<polyline clip-path="url(#clip580)" style="stroke:#000000; stroke-linecap:round; stroke-linejoin:round; stroke-width:4; stroke-opacity:1; fill:none" points="175.445,118.57 194.343,118.57 "/>
<path clip-path="url(#clip580)" d="M132.316 1347.03 Q135.672 1347.74 137.547 1350.01 Q139.445 1352.28 139.445 1355.61 Q139.445 1360.73 135.927 1363.53 Q132.408 1366.33 125.927 1366.33 Q123.751 1366.33 121.436 1365.89 Q119.144 1365.48 116.691 1364.62 L116.691 1360.11 Q118.635 1361.24 120.95 1361.82 Q123.265 1362.4 125.788 1362.4 Q130.186 1362.4 132.478 1360.66 Q134.792 1358.92 134.792 1355.61 Q134.792 1352.56 132.64 1350.85 Q130.51 1349.11 126.691 1349.11 L122.663 1349.11 L122.663 1345.27 L126.876 1345.27 Q130.325 1345.27 132.154 1343.9 Q133.982 1342.51 133.982 1339.92 Q133.982 1337.26 132.084 1335.85 Q130.209 1334.41 126.691 1334.41 Q124.769 1334.41 122.57 1334.83 Q120.371 1335.24 117.732 1336.12 L117.732 1331.96 Q120.394 1331.22 122.709 1330.85 Q125.047 1330.48 127.107 1330.48 Q132.431 1330.48 135.533 1332.91 Q138.635 1335.31 138.635 1339.43 Q138.635 1342.3 136.992 1344.3 Q135.348 1346.26 132.316 1347.03 Z" fill="#000000" fill-rule="nonzero" fill-opacity="1" /><path clip-path="url(#clip580)" d="M129.862 1130.21 L118.056 1148.66 L129.862 1148.66 L129.862 1130.21 M128.635 1126.13 L134.515 1126.13 L134.515 1148.66 L139.445 1148.66 L139.445 1152.54 L134.515 1152.54 L134.515 1160.69 L129.862 1160.69 L129.862 1152.54 L114.26 1152.54 L114.26 1148.03 L128.635 1126.13 Z" fill="#000000" fill-rule="nonzero" fill-opacity="1" /><path clip-path="url(#clip580)" d="M118.543 921.164 L136.899 921.164 L136.899 925.099 L122.825 925.099 L122.825 933.571 Q123.843 933.224 124.862 933.062 Q125.88 932.877 126.899 932.877 Q132.686 932.877 136.066 936.048 Q139.445 939.219 139.445 944.636 Q139.445 950.215 135.973 953.316 Q132.501 956.395 126.181 956.395 Q124.005 956.395 121.737 956.025 Q119.492 955.654 117.084 954.914 L117.084 950.215 Q119.168 951.349 121.39 951.904 Q123.612 952.46 126.089 952.46 Q130.093 952.46 132.431 950.353 Q134.769 948.247 134.769 944.636 Q134.769 941.025 132.431 938.918 Q130.093 936.812 126.089 936.812 Q124.214 936.812 122.339 937.229 Q120.487 937.645 118.543 938.525 L118.543 921.164 Z" fill="#000000" fill-rule="nonzero" fill-opacity="1" /><path clip-path="url(#clip580)" d="M127.917 731.612 Q124.769 731.612 122.918 733.765 Q121.089 735.917 121.089 739.667 Q121.089 743.394 122.918 745.57 Q124.769 747.723 127.917 747.723 Q131.066 747.723 132.894 745.57 Q134.746 743.394 134.746 739.667 Q134.746 735.917 132.894 733.765 Q131.066 731.612 127.917 731.612 M137.2 716.959 L137.2 721.218 Q135.441 720.385 133.635 719.945 Q131.853 719.505 130.093 719.505 Q125.464 719.505 123.01 722.63 Q120.58 725.755 120.232 732.075 Q121.598 730.061 123.658 728.996 Q125.718 727.908 128.195 727.908 Q133.404 727.908 136.413 731.079 Q139.445 734.228 139.445 739.667 Q139.445 744.991 136.297 748.209 Q133.149 751.427 127.917 751.427 Q121.922 751.427 118.751 746.843 Q115.58 742.237 115.58 733.51 Q115.58 725.316 119.468 720.454 Q123.357 715.57 129.908 715.57 Q131.667 715.57 133.45 715.917 Q135.255 716.265 137.2 716.959 Z" fill="#000000" fill-rule="nonzero" fill-opacity="1" /><path clip-path="url(#clip580)" d="M117.223 511.227 L139.445 511.227 L139.445 513.217 L126.899 545.787 L122.015 545.787 L133.82 515.162 L117.223 515.162 L117.223 511.227 Z" fill="#000000" fill-rule="nonzero" fill-opacity="1" /><path clip-path="url(#clip580)" d="M127.593 324.406 Q124.26 324.406 122.339 326.189 Q120.441 327.971 120.441 331.096 Q120.441 334.221 122.339 336.003 Q124.26 337.786 127.593 337.786 Q130.927 337.786 132.848 336.003 Q134.769 334.198 134.769 331.096 Q134.769 327.971 132.848 326.189 Q130.95 324.406 127.593 324.406 M122.918 322.416 Q119.908 321.675 118.218 319.615 Q116.552 317.554 116.552 314.592 Q116.552 310.448 119.492 308.041 Q122.455 305.633 127.593 305.633 Q132.755 305.633 135.695 308.041 Q138.635 310.448 138.635 314.592 Q138.635 317.554 136.945 319.615 Q135.279 321.675 132.292 322.416 Q135.672 323.203 137.547 325.494 Q139.445 327.786 139.445 331.096 Q139.445 336.119 136.367 338.804 Q133.311 341.49 127.593 341.49 Q121.876 341.49 118.797 338.804 Q115.742 336.119 115.742 331.096 Q115.742 327.786 117.64 325.494 Q119.538 323.203 122.918 322.416 M121.205 315.031 Q121.205 317.717 122.871 319.221 Q124.561 320.726 127.593 320.726 Q130.603 320.726 132.292 319.221 Q134.005 317.717 134.005 315.031 Q134.005 312.346 132.292 310.842 Q130.603 309.337 127.593 309.337 Q124.561 309.337 122.871 310.842 Q121.205 312.346 121.205 315.031 Z" fill="#000000" fill-rule="nonzero" fill-opacity="1" /><path clip-path="url(#clip580)" d="M117.825 135.132 L117.825 130.873 Q119.584 131.706 121.39 132.146 Q123.195 132.586 124.931 132.586 Q129.561 132.586 131.992 129.484 Q134.445 126.359 134.792 120.016 Q133.45 122.007 131.39 123.072 Q129.33 124.137 126.83 124.137 Q121.644 124.137 118.612 121.012 Q115.603 117.864 115.603 112.424 Q115.603 107.1 118.751 103.882 Q121.899 100.665 127.13 100.665 Q133.126 100.665 136.274 105.271 Q139.445 109.854 139.445 118.604 Q139.445 126.776 135.556 131.66 Q131.691 136.521 125.14 136.521 Q123.38 136.521 121.575 136.174 Q119.769 135.827 117.825 135.132 M127.13 120.479 Q130.279 120.479 132.107 118.327 Q133.959 116.174 133.959 112.424 Q133.959 108.697 132.107 106.544 Q130.279 104.368 127.13 104.368 Q123.982 104.368 122.13 106.544 Q120.302 108.697 120.302 112.424 Q120.302 116.174 122.13 118.327 Q123.982 120.479 127.13 120.479 Z" fill="#000000" fill-rule="nonzero" fill-opacity="1" /><path clip-path="url(#clip580)" d="M14.479 793.506 L14.479 787.649 L64.0042 787.649 L64.0042 793.506 L14.479 793.506 Z" fill="#000000" fill-rule="nonzero" fill-opacity="1" /><path clip-path="url(#clip580)" d="M32.4621 761.582 Q32.4621 766.293 36.1542 769.03 Q39.8145 771.767 46.212 771.767 Q52.6095 771.767 56.3017 769.062 Q59.9619 766.324 59.9619 761.582 Q59.9619 756.903 56.2698 754.166 Q52.5777 751.429 46.212 751.429 Q39.8781 751.429 36.186 754.166 Q32.4621 756.903 32.4621 761.582 M27.4968 761.582 Q27.4968 753.943 32.4621 749.583 Q37.4273 745.222 46.212 745.222 Q54.9649 745.222 59.9619 749.583 Q64.9272 753.943 64.9272 761.582 Q64.9272 769.253 59.9619 773.613 Q54.9649 777.942 46.212 777.942 Q37.4273 777.942 32.4621 773.613 Q27.4968 769.253 27.4968 761.582 Z" fill="#000000" fill-rule="nonzero" fill-opacity="1" /><path clip-path="url(#clip580)" d="M29.4065 712.789 L34.9447 712.789 Q33.6716 715.271 33.035 717.945 Q32.3984 720.619 32.3984 723.483 Q32.3984 727.844 33.7352 730.04 Q35.072 732.204 37.7456 732.204 Q39.7826 732.204 40.9603 730.645 Q42.1061 729.085 43.1565 724.374 L43.6021 722.369 Q44.9389 716.131 47.3897 713.521 Q49.8086 710.879 54.1691 710.879 Q59.1344 710.879 62.0308 714.826 Q64.9272 718.741 64.9272 725.616 Q64.9272 728.48 64.3543 731.599 Q63.8132 734.687 62.6992 738.124 L56.6518 738.124 Q58.3387 734.878 59.198 731.727 Q60.0256 728.576 60.0256 725.488 Q60.0256 721.351 58.6251 719.123 Q57.1929 716.895 54.6147 716.895 Q52.2276 716.895 50.9545 718.518 Q49.6813 720.109 48.5037 725.552 L48.0262 727.589 Q46.8804 733.032 44.5251 735.451 Q42.138 737.87 38.0002 737.87 Q32.9713 737.87 30.2341 734.305 Q27.4968 730.74 27.4968 724.183 Q27.4968 720.937 27.9743 718.072 Q28.4517 715.208 29.4065 712.789 Z" fill="#000000" fill-rule="nonzero" fill-opacity="1" /><path clip-path="url(#clip580)" d="M29.4065 678.828 L34.9447 678.828 Q33.6716 681.31 33.035 683.984 Q32.3984 686.658 32.3984 689.522 Q32.3984 693.883 33.7352 696.079 Q35.072 698.243 37.7456 698.243 Q39.7826 698.243 40.9603 696.684 Q42.1061 695.124 43.1565 690.413 L43.6021 688.408 Q44.9389 682.17 47.3897 679.56 Q49.8086 676.918 54.1691 676.918 Q59.1344 676.918 62.0308 680.865 Q64.9272 684.78 64.9272 691.655 Q64.9272 694.519 64.3543 697.638 Q63.8132 700.726 62.6992 704.163 L56.6518 704.163 Q58.3387 700.917 59.198 697.766 Q60.0256 694.615 60.0256 691.527 Q60.0256 687.39 58.6251 685.162 Q57.1929 682.934 54.6147 682.934 Q52.2276 682.934 50.9545 684.557 Q49.6813 686.148 48.5037 691.591 L48.0262 693.628 Q46.8804 699.071 44.5251 701.49 Q42.138 703.909 38.0002 703.909 Q32.9713 703.909 30.2341 700.344 Q27.4968 696.779 27.4968 690.222 Q27.4968 686.976 27.9743 684.111 Q28.4517 681.247 29.4065 678.828 Z" fill="#000000" fill-rule="nonzero" fill-opacity="1" /><polyline clip-path="url(#clip582)" style="stroke:#229ebc; stroke-linecap:round; stroke-linejoin:round; stroke-width:4; stroke-opacity:1; fill:none" points="237.067,89.3506 247.389,380.205 257.711,531.915 268.033,619.221 278.355,685.435 288.677,743.592 298.999,795.825 309.321,848.213 319.643,896.081 329.965,941.911 340.287,981.839 350.609,1015.33 360.931,1043.05 371.252,1066.74 381.574,1087.39 391.896,1108.04 402.218,1125.88 412.54,1143.25 422.862,1159.09 433.184,1173.59 443.506,1186.82 453.828,1199.05 464.15,1209.89 474.472,1219.06 484.794,1226.94 495.116,1234.03 505.438,1242.18 515.76,1247.07 526.082,1253.67 536.404,1258.94 546.726,1263.36 557.047,1267.96 567.369,1271.61 577.691,1275.35 588.013,1278.18 598.335,1282.19 608.657,1284.95 618.979,1288.1 629.301,1291.21 639.623,1294.03 649.945,1296.62 660.267,1299.16 670.589,1301.24 680.911,1303.93 691.233,1304.96 701.555,1309.13 711.877,1310.95 722.199,1313.32 732.52,1315.44 742.842,1317.62 753.164,1317.94 763.486,1321.05 773.808,1323.14 784.13,1324.37 794.452,1324.61 804.774,1327.77 815.096,1329.22 825.418,1331.01 835.74,1332.49 846.062,1334.06 856.384,1334.05 866.706,1336.12 877.028,1337.6 887.35,1338.88 897.672,1339.58 907.994,1339.97 918.315,1341.75 928.637,1342.52 938.959,1344.01 949.281,1344.07 959.603,1345.09 969.925,1346.42 980.247,1346.45 990.569,1347.38 1000.89,1349.14 1011.21,1349.7 1021.53,1350.43 1031.86,1350.09 1042.18,1352.05 1052.5,1352.41 1062.82,1352.59 1073.14,1353.54 1083.47,1353.72 1093.79,1353.74 1104.11,1355.2 1114.43,1355.09 1124.75,1355.14 1135.08,1356.65 1145.4,1356.36 1155.72,1355.91 1166.04,1356.83 1176.36,1357.48 1186.69,1358.82 1197.01,1358.57 1207.33,1359.4 1217.65,1359.51 1227.97,1359.74 1238.3,1360.58 1248.62,1359.01 1258.94,1360.86 1269.26,1360.55 1279.58,1361.78 1289.91,1361.58 1300.23,1362.3 1310.55,1363.14 1320.87,1363.15 1331.19,1363.21 1341.52,1363.52 1351.84,1364.19 1362.16,1364.26 1372.48,1364.6 1382.8,1364.58 1393.12,1365.47 1403.45,1365.78 1413.77,1365.78 1424.09,1366.21 1434.41,1365.93 1444.73,1366.02 1455.06,1367.56 1465.38,1367.13 1475.7,1368.05 1486.02,1366.63 1496.34,1368.09 1506.67,1369.02 1516.99,1368.49 1527.31,1368.63 1537.63,1369.3 1547.95,1369.63 1558.28,1370.12 1568.6,1370.54 1578.92,1370.74 1589.24,1370.89 1599.56,1370.75 1609.89,1370.71 1620.21,1371.37 1630.53,1371.84 1640.85,1371.74 1651.17,1372.41 1661.5,1372.57 1671.82,1373.05 1682.14,1372.54 1692.46,1372.72 1702.78,1373.24 1713.11,1372.68 1723.43,1372.78 1733.75,1374.42 1744.07,1374.8 1754.39,1374.46 1764.71,1375.07 1775.04,1374.36 1785.36,1375.58 1795.68,1375.23 1806,1375.47 1816.32,1375.51 1826.65,1373.85 1836.97,1376.29 1847.29,1376.86 1857.61,1376.8 1867.93,1377.02 1878.26,1376.36 1888.58,1377.78 1898.9,1377.55 1909.22,1378.11 1919.54,1377.21 1929.87,1377.71 1940.19,1378.61 1950.51,1377.37 1960.83,1377.96 1971.15,1378.84 1981.48,1378.33 1991.8,1379.12 2002.12,1379.41 2012.44,1379.61 2022.76,1379.33 2033.09,1379.55 2043.41,1380.37 2053.73,1379.97 2064.05,1379.29 2074.37,1380.91 2084.7,1380.79 2095.02,1381.35 2105.34,1379.63 2115.66,1381.61 2125.98,1380.47 2136.3,1381.17 2146.63,1382.21 2156.95,1382 2167.27,1381.63 2177.59,1382.49 2187.91,1382.55 2198.24,1381.34 2208.56,1383.06 2218.88,1383.32 2229.2,1382.61 2239.52,1382.69 2249.85,1383.5 2260.17,1383.07 2270.49,1384.01 2280.81,1384.24 2291.13,1383.78 "/>
<polyline clip-path="url(#clip582)" style="stroke:#fb8500; stroke-linecap:round; stroke-linejoin:round; stroke-width:4; stroke-opacity:1; fill:none" points="237.067,86.1857 247.389,374.951 257.711,521.516 268.033,587.123 278.355,664.941 288.677,704.771 298.999,763.725 309.321,817.146 319.643,872.871 329.965,922.596 340.287,961.38 350.609,995.93 360.931,1025.42 371.252,1050.07 381.574,1075.35 391.896,1094.07 402.218,1113.11 412.54,1130.01 422.862,1146.49 433.184,1162.74 443.506,1175.31 453.828,1187.6 464.15,1197 474.472,1207.3 484.794,1214.42 495.116,1219.29 505.438,1228.44 515.76,1232.36 526.082,1240.43 536.404,1243.79 546.726,1248.09 557.047,1253.17 567.369,1257.69 577.691,1260.27 588.013,1262.94 598.335,1268.24 608.657,1271.99 618.979,1274.77 629.301,1276.96 639.623,1280.39 649.945,1282.9 660.267,1284.74 670.589,1288.05 680.911,1291.62 691.233,1290.38 701.555,1294.94 711.877,1297.4 722.199,1301.43 732.52,1301.31 742.842,1305.03 753.164,1305.76 763.486,1309.33 773.808,1310.56 784.13,1311.35 794.452,1311.44 804.774,1315.39 815.096,1316.3 825.418,1319.24 835.74,1320.93 846.062,1323.69 856.384,1321.99 866.706,1326.4 877.028,1327.16 887.35,1328.07 897.672,1329.01 907.994,1329.43 918.315,1331.97 928.637,1332.84 938.959,1335.68 949.281,1334.72 959.603,1335.17 969.925,1338.42 980.247,1337.69 990.569,1338.96 1000.89,1340.37 1011.21,1341.07 1021.53,1340.61 1031.86,1341.06 1042.18,1343.93 1052.5,1344.49 1062.82,1342.98 1073.14,1345.19 1083.47,1345.22 1093.79,1344.33 1104.11,1347.1 1114.43,1345.27 1124.75,1347.63 1135.08,1348.35 1145.4,1348.3 1155.72,1346.43 1166.04,1348.9 1176.36,1349.27 1186.69,1350.78 1197.01,1349.48 1207.33,1351.39 1217.65,1350.42 1227.97,1352.2 1238.3,1352.89 1248.62,1352.11 1258.94,1352.81 1269.26,1350.33 1279.58,1354.92 1289.91,1352.39 1300.23,1354.39 1310.55,1355.29 1320.87,1356.55 1331.19,1355.2 1341.52,1355.97 1351.84,1357.11 1362.16,1355.92 1372.48,1357.42 1382.8,1358.33 1393.12,1359.58 1403.45,1357.48 1413.77,1357.25 1424.09,1359.41 1434.41,1357.59 1444.73,1357.84 1455.06,1360.9 1465.38,1360.12 1475.7,1360.17 1486.02,1361.86 1496.34,1360.81 1506.67,1362.72 1516.99,1361.76 1527.31,1362.42 1537.63,1362 1547.95,1363.5 1558.28,1363.64 1568.6,1363.93 1578.92,1364.75 1589.24,1365.28 1599.56,1364.61 1609.89,1363.46 1620.21,1363.59 1630.53,1364.62 1640.85,1364.23 1651.17,1366.6 1661.5,1365.32 1671.82,1364.75 1682.14,1365.59 1692.46,1364.55 1702.78,1365.71 1713.11,1365.92 1723.43,1366.7 1733.75,1367.3 1744.07,1369.21 1754.39,1367.27 1764.71,1369.15 1775.04,1365.73 1785.36,1368.79 1795.68,1369.8 1806,1368.63 1816.32,1369.9 1826.65,1368.12 1836.97,1369.86 1847.29,1370.89 1857.61,1370.69 1867.93,1371.51 1878.26,1369.58 1888.58,1371.31 1898.9,1371.53 1909.22,1371.29 1919.54,1371.1 1929.87,1373.47 1940.19,1373.33 1950.51,1372.06 1960.83,1372.32 1971.15,1373.51 1981.48,1373.94 1991.8,1374.1 2002.12,1372.89 2012.44,1372.25 2022.76,1374.58 2033.09,1374.02 2043.41,1375.15 2053.73,1374.26 2064.05,1373.54 2074.37,1374.66 2084.7,1376.32 2095.02,1376.02 2105.34,1376.54 2115.66,1376.18 2125.98,1375.2 2136.3,1375.77 2146.63,1375.82 2156.95,1375.83 2167.27,1376.14 2177.59,1377.57 2187.91,1375.68 2198.24,1373.51 2208.56,1376.33 2218.88,1377.03 2229.2,1376.49 2239.52,1375.7 2249.85,1378.16 2260.17,1376.6 2270.49,1378.45 2280.81,1378.85 2291.13,1378.56 "/>
<path clip-path="url(#clip580)" d="M1834.49 248.629 L2280.18 248.629 L2280.18 93.1086 L1834.49 93.1086  Z" fill="#ffffff" fill-rule="evenodd" fill-opacity="1"/>
<polyline clip-path="url(#clip580)" style="stroke:#000000; stroke-linecap:round; stroke-linejoin:round; stroke-width:4; stroke-opacity:1; fill:none" points="1834.49,248.629 2280.18,248.629 2280.18,93.1086 1834.49,93.1086 1834.49,248.629 "/>
<polyline clip-path="url(#clip580)" style="stroke:#229ebc; stroke-linecap:round; stroke-linejoin:round; stroke-width:4; stroke-opacity:1; fill:none" points="1858.68,144.949 2003.83,144.949 "/>
<path clip-path="url(#clip580)" d="M2035.43 128.942 L2035.43 136.303 L2044.21 136.303 L2044.21 139.613 L2035.43 139.613 L2035.43 153.687 Q2035.43 156.858 2036.29 157.761 Q2037.17 158.664 2039.83 158.664 L2044.21 158.664 L2044.21 162.229 L2039.83 162.229 Q2034.9 162.229 2033.02 160.4 Q2031.15 158.548 2031.15 153.687 L2031.15 139.613 L2028.02 139.613 L2028.02 136.303 L2031.15 136.303 L2031.15 128.942 L2035.43 128.942 Z" fill="#000000" fill-rule="nonzero" fill-opacity="1" /><path clip-path="url(#clip580)" d="M2064.83 140.284 Q2064.11 139.868 2063.26 139.682 Q2062.42 139.474 2061.4 139.474 Q2057.79 139.474 2055.85 141.835 Q2053.93 144.173 2053.93 148.571 L2053.93 162.229 L2049.65 162.229 L2049.65 136.303 L2053.93 136.303 L2053.93 140.331 Q2055.27 137.969 2057.42 136.835 Q2059.58 135.678 2062.65 135.678 Q2063.09 135.678 2063.63 135.747 Q2064.16 135.794 2064.81 135.909 L2064.83 140.284 Z" fill="#000000" fill-rule="nonzero" fill-opacity="1" /><path clip-path="url(#clip580)" d="M2081.08 149.196 Q2075.92 149.196 2073.93 150.377 Q2071.94 151.557 2071.94 154.405 Q2071.94 156.673 2073.42 158.016 Q2074.92 159.335 2077.49 159.335 Q2081.03 159.335 2083.16 156.835 Q2085.32 154.312 2085.32 150.145 L2085.32 149.196 L2081.08 149.196 M2089.58 147.437 L2089.58 162.229 L2085.32 162.229 L2085.32 158.293 Q2083.86 160.655 2081.68 161.789 Q2079.51 162.9 2076.36 162.9 Q2072.38 162.9 2070.02 160.678 Q2067.68 158.432 2067.68 154.682 Q2067.68 150.307 2070.59 148.085 Q2073.53 145.863 2079.34 145.863 L2085.32 145.863 L2085.32 145.446 Q2085.32 142.507 2083.37 140.909 Q2081.45 139.289 2077.96 139.289 Q2075.73 139.289 2073.63 139.821 Q2071.52 140.354 2069.58 141.419 L2069.58 137.483 Q2071.91 136.581 2074.11 136.141 Q2076.31 135.678 2078.39 135.678 Q2084.02 135.678 2086.8 138.594 Q2089.58 141.511 2089.58 147.437 Z" fill="#000000" fill-rule="nonzero" fill-opacity="1" /><path clip-path="url(#clip580)" d="M2098.35 136.303 L2102.61 136.303 L2102.61 162.229 L2098.35 162.229 L2098.35 136.303 M2098.35 126.21 L2102.61 126.21 L2102.61 131.604 L2098.35 131.604 L2098.35 126.21 Z" fill="#000000" fill-rule="nonzero" fill-opacity="1" /><path clip-path="url(#clip580)" d="M2133.07 146.581 L2133.07 162.229 L2128.81 162.229 L2128.81 146.719 Q2128.81 143.039 2127.38 141.21 Q2125.94 139.382 2123.07 139.382 Q2119.62 139.382 2117.63 141.581 Q2115.64 143.78 2115.64 147.576 L2115.64 162.229 L2111.36 162.229 L2111.36 136.303 L2115.64 136.303 L2115.64 140.331 Q2117.17 137.993 2119.23 136.835 Q2121.31 135.678 2124.02 135.678 Q2128.49 135.678 2130.78 138.456 Q2133.07 141.21 2133.07 146.581 Z" fill="#000000" fill-rule="nonzero" fill-opacity="1" /><path clip-path="url(#clip580)" d="M2141.57 136.303 L2145.83 136.303 L2145.83 162.229 L2141.57 162.229 L2141.57 136.303 M2141.57 126.21 L2145.83 126.21 L2145.83 131.604 L2141.57 131.604 L2141.57 126.21 Z" fill="#000000" fill-rule="nonzero" fill-opacity="1" /><path clip-path="url(#clip580)" d="M2176.29 146.581 L2176.29 162.229 L2172.03 162.229 L2172.03 146.719 Q2172.03 143.039 2170.59 141.21 Q2169.16 139.382 2166.29 139.382 Q2162.84 139.382 2160.85 141.581 Q2158.86 143.78 2158.86 147.576 L2158.86 162.229 L2154.58 162.229 L2154.58 136.303 L2158.86 136.303 L2158.86 140.331 Q2160.39 137.993 2162.45 136.835 Q2164.53 135.678 2167.24 135.678 Q2171.7 135.678 2174 138.456 Q2176.29 141.21 2176.29 146.581 Z" fill="#000000" fill-rule="nonzero" fill-opacity="1" /><path clip-path="url(#clip580)" d="M2201.84 148.965 Q2201.84 144.335 2199.92 141.789 Q2198.02 139.243 2194.57 139.243 Q2191.15 139.243 2189.23 141.789 Q2187.33 144.335 2187.33 148.965 Q2187.33 153.571 2189.23 156.118 Q2191.15 158.664 2194.57 158.664 Q2198.02 158.664 2199.92 156.118 Q2201.84 153.571 2201.84 148.965 M2206.1 159.011 Q2206.1 165.631 2203.16 168.849 Q2200.22 172.09 2194.16 172.09 Q2191.91 172.09 2189.92 171.742 Q2187.93 171.418 2186.06 170.724 L2186.06 166.58 Q2187.93 167.599 2189.76 168.085 Q2191.59 168.571 2193.49 168.571 Q2197.68 168.571 2199.76 166.372 Q2201.84 164.196 2201.84 159.775 L2201.84 157.668 Q2200.52 159.96 2198.46 161.094 Q2196.4 162.229 2193.53 162.229 Q2188.76 162.229 2185.85 158.594 Q2182.93 154.96 2182.93 148.965 Q2182.93 142.946 2185.85 139.312 Q2188.76 135.678 2193.53 135.678 Q2196.4 135.678 2198.46 136.812 Q2200.52 137.946 2201.84 140.238 L2201.84 136.303 L2206.1 136.303 L2206.1 159.011 Z" fill="#000000" fill-rule="nonzero" fill-opacity="1" /><polyline clip-path="url(#clip580)" style="stroke:#fb8500; stroke-linecap:round; stroke-linejoin:round; stroke-width:4; stroke-opacity:1; fill:none" points="1858.68,196.789 2003.83,196.789 "/>
<path clip-path="url(#clip580)" d="M2028.02 188.143 L2032.54 188.143 L2040.64 209.902 L2048.74 188.143 L2053.26 188.143 L2043.53 214.069 L2037.75 214.069 L2028.02 188.143 Z" fill="#000000" fill-rule="nonzero" fill-opacity="1" /><path clip-path="url(#clip580)" d="M2070.92 201.036 Q2065.76 201.036 2063.77 202.217 Q2061.77 203.397 2061.77 206.245 Q2061.77 208.513 2063.26 209.856 Q2064.76 211.175 2067.33 211.175 Q2070.87 211.175 2073 208.675 Q2075.15 206.152 2075.15 201.985 L2075.15 201.036 L2070.92 201.036 M2079.41 199.277 L2079.41 214.069 L2075.15 214.069 L2075.15 210.133 Q2073.7 212.495 2071.52 213.629 Q2069.34 214.74 2066.2 214.74 Q2062.21 214.74 2059.85 212.518 Q2057.52 210.272 2057.52 206.522 Q2057.52 202.147 2060.43 199.925 Q2063.37 197.703 2069.18 197.703 L2075.15 197.703 L2075.15 197.286 Q2075.15 194.347 2073.21 192.749 Q2071.29 191.129 2067.79 191.129 Q2065.57 191.129 2063.46 191.661 Q2061.36 192.194 2059.41 193.259 L2059.41 189.323 Q2061.75 188.421 2063.95 187.981 Q2066.15 187.518 2068.23 187.518 Q2073.86 187.518 2076.64 190.434 Q2079.41 193.351 2079.41 199.277 Z" fill="#000000" fill-rule="nonzero" fill-opacity="1" /><path clip-path="url(#clip580)" d="M2088.19 178.05 L2092.45 178.05 L2092.45 214.069 L2088.19 214.069 L2088.19 178.05 Z" fill="#000000" fill-rule="nonzero" fill-opacity="1" /><path clip-path="url(#clip580)" d="M2101.36 188.143 L2105.62 188.143 L2105.62 214.069 L2101.36 214.069 L2101.36 188.143 M2101.36 178.05 L2105.62 178.05 L2105.62 183.444 L2101.36 183.444 L2101.36 178.05 Z" fill="#000000" fill-rule="nonzero" fill-opacity="1" /><path clip-path="url(#clip580)" d="M2131.59 192.078 L2131.59 178.05 L2135.85 178.05 L2135.85 214.069 L2131.59 214.069 L2131.59 210.18 Q2130.25 212.495 2128.19 213.629 Q2126.15 214.74 2123.28 214.74 Q2118.58 214.74 2115.62 210.99 Q2112.68 207.24 2112.68 201.129 Q2112.68 195.018 2115.62 191.268 Q2118.58 187.518 2123.28 187.518 Q2126.15 187.518 2128.19 188.652 Q2130.25 189.763 2131.59 192.078 M2117.08 201.129 Q2117.08 205.828 2119 208.513 Q2120.94 211.175 2124.32 211.175 Q2127.7 211.175 2129.64 208.513 Q2131.59 205.828 2131.59 201.129 Q2131.59 196.43 2129.64 193.768 Q2127.7 191.083 2124.32 191.083 Q2120.94 191.083 2119 193.768 Q2117.08 196.43 2117.08 201.129 Z" fill="#000000" fill-rule="nonzero" fill-opacity="1" /><path clip-path="url(#clip580)" d="M2156.4 201.036 Q2151.24 201.036 2149.25 202.217 Q2147.26 203.397 2147.26 206.245 Q2147.26 208.513 2148.74 209.856 Q2150.25 211.175 2152.82 211.175 Q2156.36 211.175 2158.49 208.675 Q2160.64 206.152 2160.64 201.985 L2160.64 201.036 L2156.4 201.036 M2164.9 199.277 L2164.9 214.069 L2160.64 214.069 L2160.64 210.133 Q2159.18 212.495 2157.01 213.629 Q2154.83 214.74 2151.68 214.74 Q2147.7 214.74 2145.34 212.518 Q2143 210.272 2143 206.522 Q2143 202.147 2145.92 199.925 Q2148.86 197.703 2154.67 197.703 L2160.64 197.703 L2160.64 197.286 Q2160.64 194.347 2158.7 192.749 Q2156.77 191.129 2153.28 191.129 Q2151.06 191.129 2148.95 191.661 Q2146.84 192.194 2144.9 193.259 L2144.9 189.323 Q2147.24 188.421 2149.44 187.981 Q2151.64 187.518 2153.72 187.518 Q2159.34 187.518 2162.12 190.434 Q2164.9 193.351 2164.9 199.277 Z" fill="#000000" fill-rule="nonzero" fill-opacity="1" /><path clip-path="url(#clip580)" d="M2177.89 180.782 L2177.89 188.143 L2186.66 188.143 L2186.66 191.453 L2177.89 191.453 L2177.89 205.527 Q2177.89 208.698 2178.74 209.601 Q2179.62 210.504 2182.28 210.504 L2186.66 210.504 L2186.66 214.069 L2182.28 214.069 Q2177.35 214.069 2175.48 212.24 Q2173.6 210.388 2173.6 205.527 L2173.6 191.453 L2170.48 191.453 L2170.48 188.143 L2173.6 188.143 L2173.6 180.782 L2177.89 180.782 Z" fill="#000000" fill-rule="nonzero" fill-opacity="1" /><path clip-path="url(#clip580)" d="M2192.26 188.143 L2196.52 188.143 L2196.52 214.069 L2192.26 214.069 L2192.26 188.143 M2192.26 178.05 L2196.52 178.05 L2196.52 183.444 L2192.26 183.444 L2192.26 178.05 Z" fill="#000000" fill-rule="nonzero" fill-opacity="1" /><path clip-path="url(#clip580)" d="M2215.48 191.129 Q2212.05 191.129 2210.06 193.814 Q2208.07 196.476 2208.07 201.129 Q2208.07 205.782 2210.04 208.467 Q2212.03 211.129 2215.48 211.129 Q2218.88 211.129 2220.87 208.444 Q2222.86 205.758 2222.86 201.129 Q2222.86 196.522 2220.87 193.837 Q2218.88 191.129 2215.48 191.129 M2215.48 187.518 Q2221.03 187.518 2224.2 191.129 Q2227.38 194.74 2227.38 201.129 Q2227.38 207.495 2224.2 211.129 Q2221.03 214.74 2215.48 214.74 Q2209.9 214.74 2206.73 211.129 Q2203.58 207.495 2203.58 201.129 Q2203.58 194.74 2206.73 191.129 Q2209.9 187.518 2215.48 187.518 Z" fill="#000000" fill-rule="nonzero" fill-opacity="1" /><path clip-path="url(#clip580)" d="M2255.99 198.421 L2255.99 214.069 L2251.73 214.069 L2251.73 198.559 Q2251.73 194.879 2250.29 193.05 Q2248.86 191.222 2245.99 191.222 Q2242.54 191.222 2240.55 193.421 Q2238.56 195.62 2238.56 199.416 L2238.56 214.069 L2234.27 214.069 L2234.27 188.143 L2238.56 188.143 L2238.56 192.171 Q2240.08 189.833 2242.14 188.675 Q2244.23 187.518 2246.94 187.518 Q2251.4 187.518 2253.69 190.296 Q2255.99 193.05 2255.99 198.421 Z" fill="#000000" fill-rule="nonzero" fill-opacity="1" /></svg>
